<svg xmlns="http://www.w3.org/2000/svg" viewBox="0 0 208 267"><defs><style>.cls-1{fill:#2970ec;}.cls-2{fill:none;stroke:#2970ec;stroke-miterlimit:10;stroke-width:3px;}</style></defs><g id="Layer_2" data-name="Layer 2"><g id="Layer_1-2" data-name="Layer 1"><path d="M101.49,139.61V176.5a10.79,10.79,0,0,1-10.78,10.79h0a10.77,10.77,0,0,0-10.78,10.78v35.3a10.78,10.78,0,0,1-10.78,10.78H25.86a10.78,10.78,0,0,1-10.78-10.78V108.86q0-38.17,23.56-63.17T98,20.7q33.63,0,57.86,24.72a10.77,10.77,0,0,1-1.39,16.22L120.32,86.55a10.92,10.92,0,0,1-14.24-1,14.81,14.81,0,0,0-11.14-4.49q-15,0-15,20.76v16.22a10.78,10.78,0,0,0,10.78,10.78h0A10.78,10.78,0,0,1,101.49,139.61Z"/><path className="cls-1" d="M143.89,173.13v20.52a4.69,4.69,0,0,1-4.69,4.69h0a4.69,4.69,0,0,0-4.69,4.69v33.56a4.7,4.7,0,0,1-4.7,4.69H105.48a4.69,4.69,0,0,1-4.69-4.69v-104a4.69,4.69,0,0,1,4.69-4.69h24.33a4.7,4.7,0,0,1,4.7,4.69v31.14a4.69,4.69,0,0,0,4.69,4.7h0A4.69,4.69,0,0,1,143.89,173.13Zm39.45-40.53v104a4.69,4.69,0,0,1-4.69,4.69H154.32a4.69,4.69,0,0,1-4.7-4.69v-104a4.69,4.69,0,0,1,4.7-4.69h24.33A4.69,4.69,0,0,1,183.34,132.6Z"/><rect className="cls-2" x="1.5" y="1.5" width="205" height="264" rx="28.15"/></g></g></svg>